<?xml version="1.0" encoding="utf-8"?>
<!-- Generator: Adobe Illustrator 22.0.0, SVG Export Plug-In . SVG Version: 6.00 Build 0)  -->
<svg version="1.1" id="Слой_1" xmlns="http://www.w3.org/2000/svg" xmlns:xlink="http://www.w3.org/1999/xlink" x="0px" y="0px"
	 width="60px" height="55px" viewBox="0 0 60 55" style="enable-background:new 0 0 60 55;" xml:space="preserve">
<style type="text/css">
	.st0{clip-path:url(#SVGID_2_);}
	.st1{fill:#FED204;}
</style>
<title>Ресурс 1</title>
<g id="Слой_2_1_">
	<g id="Layer_1">
		<path d="M37.5,53.5c-0.6-0.4-1-1.1-1.1-1.9L36,49.2H24l-0.4,2.4c-0.1,0.7-0.5,1.4-1.1,1.9c-1,0.7-1.8,1.4-1,1.5c0.8,0.1,8,0,8.5,0
			s7.7,0.1,8.5,0C39.3,54.8,38.5,54.2,37.5,53.5z"/>
		<g>
			<defs>
				<rect id="SVGID_1_" x="1" y="0" width="58" height="55.2"/>
			</defs>
			<clipPath id="SVGID_2_">
				<use xlink:href="#SVGID_1_"  style="overflow:visible;"/>
			</clipPath>
			<g class="st0">
				<path class="st1" d="M16.4,34.2c3.2,0,3.6-0.8,4.7-4c1.9-5.1,10.6,1.3,5.2,3.6S13.2,34.2,16.4,34.2z"/>
				<path class="st1" d="M49.4,0.6C47.8-0.6,45.2,0,43.6,2L27.1,25.5c-1.6,2-1.6,1.6-0.1,2.9c1.6,1.3,1.2,1.3,2.8-0.7l19.4-21
					C50.9,4.6,51,2,49.4,0.6L49.4,0.6z M45.2,3.5c-0.3-0.3-0.7-0.6-1-0.9c0.8-1.2,2.2-1.8,3.6-1.6C45.4,2.2,45.2,3.5,45.2,3.5z"/>
				<path d="M56.7,8.6h-7.3L46.3,12h9.3v27.9H4.5V12h29.8l2.5-3.5H3.3C2,8.6,1,9.6,1,10.9v33.7c0,1.3,1,2.3,2.3,2.3h53.4
					c1.3,0,2.3-1,2.3-2.3V10.9C59,9.6,58,8.6,56.7,8.6z"/>
			</g>
		</g>
	</g>
</g>
</svg>
