<?xml version="1.0" encoding="utf-8"?>
<!-- Generator: Adobe Illustrator 22.0.0, SVG Export Plug-In . SVG Version: 6.00 Build 0)  -->
<svg version="1.1" id="Layer_1" xmlns="http://www.w3.org/2000/svg" xmlns:xlink="http://www.w3.org/1999/xlink" x="0px" y="0px"
	 width="68px" height="60px" viewBox="0 0 68 60" style="enable-background:new 0 0 68 60;" xml:space="preserve">
<style type="text/css">
	.st0{fill:#FED308;}
	.st1{clip-path:url(#SVGID_2_);}
</style>
<title>Artboard 1</title>
<path class="st0" d="M50.9,16.9c-2-0.8-2.6-1.3-2.6-2.2c0-0.7,0.5-1.5,2.1-1.5c0.8,0,1.6,0.2,2.4,0.5c0.1,0.1,0.2,0.1,0.3,0.1
	c0.3,0,0.6-0.2,0.7-0.4l0.4-0.9c0.1-0.3,0-0.6-0.3-0.7c-0.8-0.3-1.6-0.5-2.5-0.6c-0.1,0-0.1-0.1-0.1-0.1V9.5c0-0.4-0.3-0.8-0.8-0.8
	c0,0,0,0,0,0h-0.7c-0.4,0-0.8,0.3-0.8,0.7c0,0,0,0,0,0V11c0,0.1-0.1,0.2-0.2,0.2c-2,0.5-3.3,2-3.3,3.9c0,2.4,1.9,3.4,4,4.2
	c1.7,0.7,2.4,1.3,2.4,2.3c0,1-1,1.8-2.4,1.8c-1-0.1-1.9-0.4-2.8-0.8c-0.1,0-0.2-0.1-0.3-0.1c-0.3,0-0.6,0.2-0.7,0.5l-0.4,1
	c-0.1,0.3,0,0.6,0.3,0.8c0.9,0.4,1.9,0.7,3,0.8c0,0,0.1,0,0.1,0.1v1.4c0,0.4,0.3,0.8,0.8,0.8c0,0,0,0,0,0h0.7c0.4,0,0.8-0.3,0.8-0.8
	v-1.5c0-0.1,0-0.1,0.1-0.2c0,0,0,0,0,0c2.2-0.5,3.5-2.1,3.5-4.1S53.5,17.9,50.9,16.9z"/>
<g>
	<defs>
		<rect id="SVGID_1_" y="0.3" width="68" height="59.4"/>
	</defs>
	<clipPath id="SVGID_2_">
		<use xlink:href="#SVGID_1_"  style="overflow:visible;"/>
	</clipPath>
	<g class="st1">
		<path class="st0" d="M50,0.3c-9.9,0-18,8-18,18s8,18,18,18s18-8,18-18C68,8.4,59.9,0.3,50,0.3z M50,32.1
			c-7.6,0-13.8-6.2-13.8-13.8S42.4,4.5,50,4.5c7.6,0,13.8,6.2,13.8,13.8S57.6,32.1,50,32.1L50,32.1z"/>
		<path d="M64.3,45C59.9,47.4,55,49,50,49.8c-4.7,0.8-13.4-1-13.4-3.1c0-0.8,7.7,1.9,12.4,0.7c3.6-1,3.1-4.3,1.1-4.7
			C48.1,42.3,36.8,38.1,32,38c-2.3-0.1-7.9,0.8-10.6,1.2c-0.9,0.2-1.5,0.1-1.6,1c-0.3,4.1-0.8,12.6-1.1,17c0,0.1,0.1,1.3,1.2,0.5
			c1.1-1,2.7-2,4.2-1.7c2.3,0.5,22.3,4.2,25.1,3.6c3.9-0.9,15.1-7.5,17.3-9.6C69.7,46.8,67.1,43.4,64.3,45L64.3,45z"/>
		<path d="M14.3,39.1L3.8,38.5c-0.8,0-1.6,0.5-1.8,1.4L0,57.2c-0.2,0.6,0.1,1.2,0.7,1.4c0.1,0,0.2,0.1,0.4,0.1h11.6
			c0.8,0,1.5-0.6,1.6-1.4l1.3-16.7C15.7,39.8,15.1,39.1,14.3,39.1C14.3,39.1,14.3,39.1,14.3,39.1L14.3,39.1z M8.1,56.4
			c-1.6,0-2.9-1.3-2.9-2.9c0-1.6,1.3-2.9,2.9-2.9c1.6,0,2.9,1.3,2.9,2.9C11,55.1,9.7,56.4,8.1,56.4C8.1,56.4,8.1,56.4,8.1,56.4z"/>
	</g>
</g>
</svg>
