<?xml version="1.0" encoding="utf-8"?>
<!-- Generator: Adobe Illustrator 22.0.0, SVG Export Plug-In . SVG Version: 6.00 Build 0)  -->
<svg version="1.1" id="Слой_1" xmlns="http://www.w3.org/2000/svg" xmlns:xlink="http://www.w3.org/1999/xlink" x="0px" y="0px"
	 width="62px" height="50px" viewBox="0 0 62 50" style="enable-background:new 0 0 62 50;" xml:space="preserve">
<style type="text/css">
	.st0{fill:#FED308;}
</style>
<title>photobook_1</title>
<path class="st0" d="M38.6,39h-2.4V23c0-1.2-1-2.2-2.2-2.2c0,0,0,0,0,0h-6c-1.2,0-2.2,1-2.2,2.2V39h-2.4c-0.8,0-1.4,0.6-1.4,1.4
	c0,0.3,0.1,0.7,0.3,0.9l6.5,7.6c1,1.2,2.9,1.4,4.1,0.3c0.1-0.1,0.2-0.2,0.3-0.3l6.5-7.6c0.4-0.4,0.4-1,0.2-1.5
	C39.6,39.4,39.1,39,38.6,39L38.6,39z"/>
<path d="M49,9.2c-0.4,0-0.8-0.3-1.1-0.6c-2.5-3.4-6.4-5.3-10.6-5.4c-0.3,0-0.5,0-0.8,0c-0.4,0-0.7-0.1-1-0.3C29.1-2,19.9-0.7,15,5.8
	c-0.6,0.8-1.1,1.7-1.6,2.6c-0.2,0.4-0.6,0.8-1.1,0.8C5.1,10.2,0.1,16.9,1.1,24c0.9,6.5,6.5,11.4,13,11.3h9.3v-5.1h-9.3
	c-4.4,0.1-8.1-3.3-8.2-7.7s3.3-8.1,7.7-8.2c0.2,0,0.3,0,0.5,0c0.2,0,0.4,0,0.7,0c1.3,0.1,2.4-0.7,2.7-2c1.3-5.1,6.5-8.2,11.6-6.9
	c1.6,0.4,3.1,1.3,4.3,2.4c0.6,0.6,1.5,0.9,2.3,0.7c0.5-0.1,1.1-0.2,1.6-0.2c3.1,0,5.9,1.8,7.2,4.5c0.5,1,1.5,1.6,2.6,1.4
	c0.3,0,0.5,0,0.8,0c4.4-0.1,8.1,3.3,8.2,7.7c0.1,4.4-3.3,8.1-7.7,8.2c-0.2,0-0.3,0-0.5,0h-9.3v5.2h9.3c7.2,0.3,13.4-5.3,13.7-12.6
	S56.3,9.5,49,9.2z"/>
</svg>
