<?xml version="1.0" encoding="utf-8"?>
<!-- Generator: Adobe Illustrator 22.0.0, SVG Export Plug-In . SVG Version: 6.00 Build 0)  -->
<svg version="1.1" id="Layer_1" xmlns="http://www.w3.org/2000/svg" xmlns:xlink="http://www.w3.org/1999/xlink" x="0px" y="0px"
	 width="60px" height="65px" viewBox="0 0 60 65" style="enable-background:new 0 0 60 65;" xml:space="preserve">
<style type="text/css">
	.st0{clip-path:url(#SVGID_2_);}
	.st1{fill:#FED308;}
</style>
<title>Artboard 1</title>
<g>
	<defs>
		<rect id="SVGID_1_" x="0.5" y="0" width="58.9" height="65"/>
	</defs>
	<clipPath id="SVGID_2_">
		<use xlink:href="#SVGID_1_"  style="overflow:visible;"/>
	</clipPath>
	<g class="st0">
		<path d="M24,50.1c-4,1.3-6.2,5.6-4.9,9.6s5.6,6.2,9.6,4.9c4-1.3,6.2-5.6,4.9-9.6C32.3,51,28,48.8,24,50.1z M27.6,61
			c-2,0.7-4.2-0.4-4.8-2.4c-0.7-2,0.4-4.2,2.4-4.8c2-0.7,4.1,0.4,4.8,2.4C30.7,58.2,29.6,60.4,27.6,61z"/>
		<path class="st1" d="M31.7,45.9c0.2,0.5,0.7,0.8,1.2,0.6c0,0,0,0,0,0l24.9-8.2c0.5-0.2,0.8-0.7,0.6-1.2c0,0,0,0,0,0l-7.9-24
			c-0.2-0.5-0.7-0.8-1.2-0.6c0,0,0,0,0,0l-24.9,8.2c-0.5,0.2-0.8,0.7-0.6,1.2L31.7,45.9z M38.7,22.4l8.5,4.7l-1.4,2.6l-3.7-2
			l3.1,9.6l-3,1l-3.1-9.6l-1.7,3.8l-2.7-1.2L38.7,22.4z"/>
		<path d="M59.3,44.6c-0.3-1-1.4-1.6-2.5-1.2l-23.3,7.7c0.9,1,1.5,2.1,1.9,3.3l0,0.1l22.6-7.5C59.1,46.7,59.7,45.6,59.3,44.6
			C59.3,44.6,59.3,44.6,59.3,44.6z"/>
		<path d="M28.8,48.1L14.6,5.1c-1.2-3.8-5.3-5.9-9.1-4.7s-5.9,5.3-4.7,9.1c0,0.1,0,0.1,0.1,0.2c0.2,1,1.3,1.7,2.3,1.5
			c1-0.2,1.7-1.3,1.5-2.3c0-0.1-0.1-0.2-0.1-0.3C4,6.7,5,4.8,6.7,4.2s3.7,0.4,4.2,2.1L24.7,48C26.1,47.7,27.5,47.8,28.8,48.1z"/>
	</g>
</g>
</svg>
